
<svg width="192" height="192" viewBox="0 0 192 192" xmlns="http://www.w3.org/2000/svg">
  <defs>
    <linearGradient id="bgGradient" x1="0%" y1="0%" x2="100%" y2="100%">
      <stop offset="0%" style="stop-color:#0f172a;stop-opacity:1" />
      <stop offset="100%" style="stop-color:#1e293b;stop-opacity:1" />
    </linearGradient>
    <linearGradient id="iconGradient" x1="0%" y1="0%" x2="100%" y2="100%">
      <stop offset="0%" style="stop-color:#06b6d4;stop-opacity:1" />
      <stop offset="100%" style="stop-color:#0891b2;stop-opacity:1" />
    </linearGradient>
  </defs>
  
  <!-- Background -->
  <rect width="192" height="192" rx="19.200000000000003" fill="url(#bgGradient)"/>
  
  <!-- Main icon area -->
  <g transform="translate(28.799999999999997, 28.799999999999997)">
    <!-- Markdown "M" symbol -->
    <path d="M 19.200000000000003 28.799999999999997 L 19.200000000000003 124.80000000000001 L 38.400000000000006 124.80000000000001 L 38.400000000000006 67.19999999999999 L 48 86.4 L 57.599999999999994 67.19999999999999 L 57.599999999999994 124.80000000000001 L 76.80000000000001 124.80000000000001 L 76.80000000000001 28.799999999999997 Z" fill="url(#iconGradient)"/>
    
    <!-- Document representation -->
    <rect x="86.4" y="38.400000000000006" width="48" height="67.19999999999999" rx="3.84" fill="url(#iconGradient)" opacity="0.8"/>
    
    <!-- Text lines -->
    <rect x="92.16" y="53.760000000000005" width="36.480000000000004" height="3.84" rx="1.92" fill="white" opacity="0.7"/>
    <rect x="92.16" y="63.36" width="28.799999999999997" height="3.84" rx="1.92" fill="white" opacity="0.7"/>
    <rect x="92.16" y="72.96000000000001" width="32.64" height="3.84" rx="1.92" fill="white" opacity="0.7"/>
    <rect x="92.16" y="82.56" width="23.04" height="3.84" rx="1.92" fill="white" opacity="0.7"/>
  </g>
  
  <!-- Subtle highlight -->
  <rect width="192" height="57.599999999999994" rx="19.200000000000003" fill="url(#iconGradient)" opacity="0.1"/>
</svg>
