
<svg width="96" height="96" viewBox="0 0 96 96" xmlns="http://www.w3.org/2000/svg">
  <defs>
    <linearGradient id="bgGradient" x1="0%" y1="0%" x2="100%" y2="100%">
      <stop offset="0%" style="stop-color:#0f172a;stop-opacity:1" />
      <stop offset="100%" style="stop-color:#1e293b;stop-opacity:1" />
    </linearGradient>
    <linearGradient id="iconGradient" x1="0%" y1="0%" x2="100%" y2="100%">
      <stop offset="0%" style="stop-color:#06b6d4;stop-opacity:1" />
      <stop offset="100%" style="stop-color:#0891b2;stop-opacity:1" />
    </linearGradient>
  </defs>
  
  <!-- Background -->
  <rect width="96" height="96" rx="9.600000000000001" fill="url(#bgGradient)"/>
  
  <!-- Main icon area -->
  <g transform="translate(14.399999999999999, 14.399999999999999)">
    <!-- Markdown "M" symbol -->
    <path d="M 9.600000000000001 14.399999999999999 L 9.600000000000001 62.400000000000006 L 19.200000000000003 62.400000000000006 L 19.200000000000003 33.599999999999994 L 24 43.2 L 28.799999999999997 33.599999999999994 L 28.799999999999997 62.400000000000006 L 38.400000000000006 62.400000000000006 L 38.400000000000006 14.399999999999999 Z" fill="url(#iconGradient)"/>
    
    <!-- Document representation -->
    <rect x="43.2" y="19.200000000000003" width="24" height="33.599999999999994" rx="1.92" fill="url(#iconGradient)" opacity="0.8"/>
    
    <!-- Text lines -->
    <rect x="46.08" y="26.880000000000003" width="18.240000000000002" height="1.92" rx="0.96" fill="white" opacity="0.7"/>
    <rect x="46.08" y="31.68" width="14.399999999999999" height="1.92" rx="0.96" fill="white" opacity="0.7"/>
    <rect x="46.08" y="36.480000000000004" width="16.32" height="1.92" rx="0.96" fill="white" opacity="0.7"/>
    <rect x="46.08" y="41.28" width="11.52" height="1.92" rx="0.96" fill="white" opacity="0.7"/>
  </g>
  
  <!-- Subtle highlight -->
  <rect width="96" height="28.799999999999997" rx="9.600000000000001" fill="url(#iconGradient)" opacity="0.1"/>
</svg>
