
<svg width="72" height="72" viewBox="0 0 72 72" xmlns="http://www.w3.org/2000/svg">
  <defs>
    <linearGradient id="bgGradient" x1="0%" y1="0%" x2="100%" y2="100%">
      <stop offset="0%" style="stop-color:#0f172a;stop-opacity:1" />
      <stop offset="100%" style="stop-color:#1e293b;stop-opacity:1" />
    </linearGradient>
    <linearGradient id="iconGradient" x1="0%" y1="0%" x2="100%" y2="100%">
      <stop offset="0%" style="stop-color:#06b6d4;stop-opacity:1" />
      <stop offset="100%" style="stop-color:#0891b2;stop-opacity:1" />
    </linearGradient>
  </defs>
  
  <!-- Background -->
  <rect width="72" height="72" rx="7.2" fill="url(#bgGradient)"/>
  
  <!-- Main icon area -->
  <g transform="translate(10.799999999999999, 10.799999999999999)">
    <!-- Markdown "M" symbol -->
    <path d="M 7.2 10.799999999999999 L 7.2 46.800000000000004 L 14.4 46.800000000000004 L 14.4 25.2 L 18 32.4 L 21.599999999999998 25.2 L 21.599999999999998 46.800000000000004 L 28.8 46.800000000000004 L 28.8 10.799999999999999 Z" fill="url(#iconGradient)"/>
    
    <!-- Document representation -->
    <rect x="32.4" y="14.4" width="18" height="25.2" rx="1.44" fill="url(#iconGradient)" opacity="0.8"/>
    
    <!-- Text lines -->
    <rect x="34.56" y="20.160000000000004" width="13.68" height="1.44" rx="0.72" fill="white" opacity="0.7"/>
    <rect x="34.56" y="23.76" width="10.799999999999999" height="1.44" rx="0.72" fill="white" opacity="0.7"/>
    <rect x="34.56" y="27.36" width="12.24" height="1.44" rx="0.72" fill="white" opacity="0.7"/>
    <rect x="34.56" y="30.96" width="8.64" height="1.44" rx="0.72" fill="white" opacity="0.7"/>
  </g>
  
  <!-- Subtle highlight -->
  <rect width="72" height="21.599999999999998" rx="7.2" fill="url(#iconGradient)" opacity="0.1"/>
</svg>
