
<svg width="152" height="152" viewBox="0 0 152 152" xmlns="http://www.w3.org/2000/svg">
  <defs>
    <linearGradient id="bgGradient" x1="0%" y1="0%" x2="100%" y2="100%">
      <stop offset="0%" style="stop-color:#0f172a;stop-opacity:1" />
      <stop offset="100%" style="stop-color:#1e293b;stop-opacity:1" />
    </linearGradient>
    <linearGradient id="iconGradient" x1="0%" y1="0%" x2="100%" y2="100%">
      <stop offset="0%" style="stop-color:#06b6d4;stop-opacity:1" />
      <stop offset="100%" style="stop-color:#0891b2;stop-opacity:1" />
    </linearGradient>
  </defs>
  
  <!-- Background -->
  <rect width="152" height="152" rx="15.200000000000001" fill="url(#bgGradient)"/>
  
  <!-- Main icon area -->
  <g transform="translate(22.8, 22.8)">
    <!-- Markdown "M" symbol -->
    <path d="M 15.200000000000001 22.8 L 15.200000000000001 98.8 L 30.400000000000002 98.8 L 30.400000000000002 53.199999999999996 L 38 68.4 L 45.6 53.199999999999996 L 45.6 98.8 L 60.800000000000004 98.8 L 60.800000000000004 22.8 Z" fill="url(#iconGradient)"/>
    
    <!-- Document representation -->
    <rect x="68.4" y="30.400000000000002" width="38" height="53.199999999999996" rx="3.04" fill="url(#iconGradient)" opacity="0.8"/>
    
    <!-- Text lines -->
    <rect x="72.96" y="42.56" width="28.88" height="3.04" rx="1.52" fill="white" opacity="0.7"/>
    <rect x="72.96" y="50.160000000000004" width="22.8" height="3.04" rx="1.52" fill="white" opacity="0.7"/>
    <rect x="72.96" y="57.76" width="25.840000000000003" height="3.04" rx="1.52" fill="white" opacity="0.7"/>
    <rect x="72.96" y="65.36" width="18.24" height="3.04" rx="1.52" fill="white" opacity="0.7"/>
  </g>
  
  <!-- Subtle highlight -->
  <rect width="152" height="45.6" rx="15.200000000000001" fill="url(#iconGradient)" opacity="0.1"/>
</svg>
