
<svg width="128" height="128" viewBox="0 0 128 128" xmlns="http://www.w3.org/2000/svg">
  <defs>
    <linearGradient id="bgGradient" x1="0%" y1="0%" x2="100%" y2="100%">
      <stop offset="0%" style="stop-color:#0f172a;stop-opacity:1" />
      <stop offset="100%" style="stop-color:#1e293b;stop-opacity:1" />
    </linearGradient>
    <linearGradient id="iconGradient" x1="0%" y1="0%" x2="100%" y2="100%">
      <stop offset="0%" style="stop-color:#06b6d4;stop-opacity:1" />
      <stop offset="100%" style="stop-color:#0891b2;stop-opacity:1" />
    </linearGradient>
  </defs>
  
  <!-- Background -->
  <rect width="128" height="128" rx="12.8" fill="url(#bgGradient)"/>
  
  <!-- Main icon area -->
  <g transform="translate(19.2, 19.2)">
    <!-- Markdown "M" symbol -->
    <path d="M 12.8 19.2 L 12.8 83.2 L 25.6 83.2 L 25.6 44.8 L 32 57.6 L 38.4 44.8 L 38.4 83.2 L 51.2 83.2 L 51.2 19.2 Z" fill="url(#iconGradient)"/>
    
    <!-- Document representation -->
    <rect x="57.6" y="25.6" width="32" height="44.8" rx="2.56" fill="url(#iconGradient)" opacity="0.8"/>
    
    <!-- Text lines -->
    <rect x="61.44" y="35.84" width="24.32" height="2.56" rx="1.28" fill="white" opacity="0.7"/>
    <rect x="61.44" y="42.24" width="19.2" height="2.56" rx="1.28" fill="white" opacity="0.7"/>
    <rect x="61.44" y="48.64" width="21.76" height="2.56" rx="1.28" fill="white" opacity="0.7"/>
    <rect x="61.44" y="55.04" width="15.36" height="2.56" rx="1.28" fill="white" opacity="0.7"/>
  </g>
  
  <!-- Subtle highlight -->
  <rect width="128" height="38.4" rx="12.8" fill="url(#iconGradient)" opacity="0.1"/>
</svg>
