
<svg width="144" height="144" viewBox="0 0 144 144" xmlns="http://www.w3.org/2000/svg">
  <defs>
    <linearGradient id="bgGradient" x1="0%" y1="0%" x2="100%" y2="100%">
      <stop offset="0%" style="stop-color:#0f172a;stop-opacity:1" />
      <stop offset="100%" style="stop-color:#1e293b;stop-opacity:1" />
    </linearGradient>
    <linearGradient id="iconGradient" x1="0%" y1="0%" x2="100%" y2="100%">
      <stop offset="0%" style="stop-color:#06b6d4;stop-opacity:1" />
      <stop offset="100%" style="stop-color:#0891b2;stop-opacity:1" />
    </linearGradient>
  </defs>
  
  <!-- Background -->
  <rect width="144" height="144" rx="14.4" fill="url(#bgGradient)"/>
  
  <!-- Main icon area -->
  <g transform="translate(21.599999999999998, 21.599999999999998)">
    <!-- Markdown "M" symbol -->
    <path d="M 14.4 21.599999999999998 L 14.4 93.60000000000001 L 28.8 93.60000000000001 L 28.8 50.4 L 36 64.8 L 43.199999999999996 50.4 L 43.199999999999996 93.60000000000001 L 57.6 93.60000000000001 L 57.6 21.599999999999998 Z" fill="url(#iconGradient)"/>
    
    <!-- Document representation -->
    <rect x="64.8" y="28.8" width="36" height="50.4" rx="2.88" fill="url(#iconGradient)" opacity="0.8"/>
    
    <!-- Text lines -->
    <rect x="69.12" y="40.32000000000001" width="27.36" height="2.88" rx="1.44" fill="white" opacity="0.7"/>
    <rect x="69.12" y="47.52" width="21.599999999999998" height="2.88" rx="1.44" fill="white" opacity="0.7"/>
    <rect x="69.12" y="54.72" width="24.48" height="2.88" rx="1.44" fill="white" opacity="0.7"/>
    <rect x="69.12" y="61.92" width="17.28" height="2.88" rx="1.44" fill="white" opacity="0.7"/>
  </g>
  
  <!-- Subtle highlight -->
  <rect width="144" height="43.199999999999996" rx="14.4" fill="url(#iconGradient)" opacity="0.1"/>
</svg>
