
<svg width="512" height="512" viewBox="0 0 512 512" xmlns="http://www.w3.org/2000/svg">
  <defs>
    <linearGradient id="bgGradient" x1="0%" y1="0%" x2="100%" y2="100%">
      <stop offset="0%" style="stop-color:#0f172a;stop-opacity:1" />
      <stop offset="100%" style="stop-color:#1e293b;stop-opacity:1" />
    </linearGradient>
    <linearGradient id="iconGradient" x1="0%" y1="0%" x2="100%" y2="100%">
      <stop offset="0%" style="stop-color:#06b6d4;stop-opacity:1" />
      <stop offset="100%" style="stop-color:#0891b2;stop-opacity:1" />
    </linearGradient>
  </defs>
  
  <!-- Background -->
  <rect width="512" height="512" rx="51.2" fill="url(#bgGradient)"/>
  
  <!-- Main icon area -->
  <g transform="translate(76.8, 76.8)">
    <!-- Markdown "M" symbol -->
    <path d="M 51.2 76.8 L 51.2 332.8 L 102.4 332.8 L 102.4 179.2 L 128 230.4 L 153.6 179.2 L 153.6 332.8 L 204.8 332.8 L 204.8 76.8 Z" fill="url(#iconGradient)"/>
    
    <!-- Document representation -->
    <rect x="230.4" y="102.4" width="128" height="179.2" rx="10.24" fill="url(#iconGradient)" opacity="0.8"/>
    
    <!-- Text lines -->
    <rect x="245.76" y="143.36" width="97.28" height="10.24" rx="5.12" fill="white" opacity="0.7"/>
    <rect x="245.76" y="168.96" width="76.8" height="10.24" rx="5.12" fill="white" opacity="0.7"/>
    <rect x="245.76" y="194.56" width="87.04" height="10.24" rx="5.12" fill="white" opacity="0.7"/>
    <rect x="245.76" y="220.16" width="61.44" height="10.24" rx="5.12" fill="white" opacity="0.7"/>
  </g>
  
  <!-- Subtle highlight -->
  <rect width="512" height="153.6" rx="51.2" fill="url(#iconGradient)" opacity="0.1"/>
</svg>
