
<svg width="32" height="32" viewBox="0 0 32 32" xmlns="http://www.w3.org/2000/svg">
  <defs>
    <linearGradient id="bgGradient" x1="0%" y1="0%" x2="100%" y2="100%">
      <stop offset="0%" style="stop-color:#0f172a;stop-opacity:1" />
      <stop offset="100%" style="stop-color:#1e293b;stop-opacity:1" />
    </linearGradient>
    <linearGradient id="iconGradient" x1="0%" y1="0%" x2="100%" y2="100%">
      <stop offset="0%" style="stop-color:#06b6d4;stop-opacity:1" />
      <stop offset="100%" style="stop-color:#0891b2;stop-opacity:1" />
    </linearGradient>
  </defs>
  
  <!-- Background -->
  <rect width="32" height="32" rx="3.2" fill="url(#bgGradient)"/>
  
  <!-- Main icon area -->
  <g transform="translate(4.8, 4.8)">
    <!-- Markdown "M" symbol -->
    <path d="M 3.2 4.8 L 3.2 20.8 L 6.4 20.8 L 6.4 11.2 L 8 14.4 L 9.6 11.2 L 9.6 20.8 L 12.8 20.8 L 12.8 4.8 Z" fill="url(#iconGradient)"/>
    
    <!-- Document representation -->
    <rect x="14.4" y="6.4" width="8" height="11.2" rx="0.64" fill="url(#iconGradient)" opacity="0.8"/>
    
    <!-- Text lines -->
    <rect x="15.36" y="8.96" width="6.08" height="0.64" rx="0.32" fill="white" opacity="0.7"/>
    <rect x="15.36" y="10.56" width="4.8" height="0.64" rx="0.32" fill="white" opacity="0.7"/>
    <rect x="15.36" y="12.16" width="5.44" height="0.64" rx="0.32" fill="white" opacity="0.7"/>
    <rect x="15.36" y="13.76" width="3.84" height="0.64" rx="0.32" fill="white" opacity="0.7"/>
  </g>
  
  <!-- Subtle highlight -->
  <rect width="32" height="9.6" rx="3.2" fill="url(#iconGradient)" opacity="0.1"/>
</svg>
